<svg xmlns="http://www.w3.org/2000/svg" viewBox="0 0 89 78" id="plane">
  <g id="Layer_2">
    <g id="Layer_1-2">
      <path fill="#4b4668" d="M82.5 35.85v1.09A12.56 12.56 0 0 1 69.94 49.5H2.85a10 10 0 0 0 8.65 5h65.7a10.2 10.2 0 0 0 10.27-9.23 10 10 0 0 0-4.97-9.42z" opacity=".1" style="fill:#4b4668;opacity:.1"></path>
      <path fill="none" stroke="#f59394" stroke-linecap="round" stroke-linejoin="round" stroke-width="3" d="M3.5 48.5h14" style="stroke-linecap:round;stroke-linejoin:round;stroke-width:3px;stroke:#f59394;fill:none"></path>
      <path fill="#ff9494" d="M65.3 34.5H43.81a.47.47 0 0 1-.43-.28L36 17.34a4.18 4.18 0 0 1 3.83-5.84 4.18 4.18 0 0 1 2.83 1.1l22.96 21.09a.47.47 0 0 1-.32.81z" style="fill:#ff9494"></path>
      <path d="M62.5 34.5h-23L32 17.34a4.18 4.18 0 0 1 3.83-5.84 4.18 4.18 0 0 1 2.83 1.1z" style="fill:none;stroke-linecap:round;stroke-linejoin:round;stroke-width:3px;stroke:#4b4668"></path>
      <path d="m13.5 34.5-5-10a3.71 3.71 0 0 0-3.32-2 3.71 3.71 0 0 0-3.68 3.71V44.5a10 10 0 0 0 10 10h66a10 10 0 0 0 10-10 10 10 0 0 0-10-10z" style="fill:none;stroke-linecap:round;stroke-linejoin:round;stroke-width:3px;stroke:#4b4668"></path>
      <path fill="#fff" stroke="#4b4668" stroke-linecap="round" stroke-linejoin="round" stroke-width="3" d="m39.5 48.5-8 22.27a4.29 4.29 0 0 0 4 5.73 4.29 4.29 0 0 0 3.2-1.43L62.5 48.5" style="fill:#fff;stroke:#4b4668;stroke-linecap:round;stroke-linejoin:round;stroke-width:3px"></path>
      <path d="m16.5 40.5-6-12M86.5 41.5h-9M29.5 60.5h5M31.5 63h2M29.5 28.5h7M31.5 26h2" style="fill:none;stroke-linecap:round;stroke-linejoin:round;stroke-width:3px;stroke:#4b4668"></path>
      <g style="opacity:.2">
        <path d="M19.58 21.42v5M22.08 23.92h-5" style="fill:none;stroke-linecap:round;stroke-linejoin:round;stroke-width:3px;stroke:#4b4668"></path>
      </g>
      <g style="opacity:.2">
        <path d="M72.35 19.92v5M74.85 22.42h-5" style="fill:none;stroke-linecap:round;stroke-linejoin:round;stroke-width:3px;stroke:#4b4668"></path>
      </g>
      <circle cx="27" cy="4" r="2.5" fill="none" stroke="#f59394" stroke-linecap="round" stroke-linejoin="round" stroke-width="3" opacity=".5" style="opacity:.5;stroke-linecap:round;stroke-linejoin:round;stroke-width:3px;stroke:#f59394;fill:none"></circle>
    </g>
  </g>
</svg>
